<svg width="419" height="77" viewBox="0 0 419 77" fill="none" xmlns="http://www.w3.org/2000/svg">
<path d="M19.4169 28.1882L4.72303 37.7949L0 29.7051L15.6122 22.3736L0.393586 15.2949L4.98542 7.20505L19.4169 16.6854L17.8426 0H27.4198L26.1079 16.6854L39.8834 7.20505L44.6064 15.2949L29.3878 22.3736L45 29.7051L40.1458 37.7949L26.1079 28.3146L27.4198 45H17.8426L19.4169 28.1882Z" fill="white"/>
<path d="M407.726 23.0803H418.506V75.0003H407.726V23.0803ZM407.506 3.28027H418.946V14.7203H407.506V3.28027Z" fill="white"/>
<path d="M330.047 61.3604H343.247V75.0004H330.047V61.3604Z" fill="white"/>
<path d="M278.498 0.860352H288.948V47.3904L310.178 23.0803H322.608L304.128 42.4404L323.818 75.0004H312.158L297.198 49.9204L288.948 59.2704V75.0004H278.498V0.860352Z" fill="white"/>
<path d="M370.205 75.3113C365.738 75.3113 361.684 74.2118 358.042 72.0128C354.4 69.7451 351.514 66.6872 349.383 62.8389C347.322 58.9907 346.291 54.6615 346.291 49.8512C346.291 45.041 347.322 40.7117 349.383 36.8635C351.514 33.0153 354.365 29.9573 357.939 27.6896C361.581 25.4219 365.67 24.2881 370.205 24.2881C373.916 24.2881 377.214 25.0783 380.1 26.6589C383.055 28.1707 385.426 30.3009 387.213 33.0496C388.999 35.7297 389.996 38.8563 390.202 42.4297V57.1697C389.996 60.6743 388.999 63.801 387.213 66.5497C385.495 69.2984 383.158 71.4631 380.203 73.0436C377.317 74.5554 373.984 75.3113 370.205 75.3113ZM371.751 66.5497C376.355 66.5497 380.066 65.0036 382.883 61.9112C385.701 58.7502 387.11 54.7302 387.11 49.8512C387.11 46.484 386.457 43.5635 385.151 41.0897C383.914 38.5471 382.128 36.5886 379.791 35.2143C377.455 33.7712 374.74 33.0496 371.648 33.0496C368.556 33.0496 365.807 33.7712 363.402 35.2143C361.065 36.6573 359.21 38.6502 357.836 41.1927C356.53 43.6666 355.877 46.5184 355.877 49.7481C355.877 53.0466 356.53 55.9671 357.836 58.5097C359.21 60.9836 361.1 62.942 363.505 64.3851C365.91 65.8282 368.659 66.5497 371.751 66.5497ZM386.491 74.2805V61.0866L388.243 49.1297L386.491 37.2758V25.3189H395.871V74.2805H386.491Z" fill="white"/>
<path d="M250.597 76.4305C245.683 76.4305 241.247 75.4771 237.287 73.5705C233.327 71.5905 230.137 68.9138 227.717 65.5405L236.957 60.7005C238.497 62.9738 240.513 64.6971 243.007 65.8705C245.5 67.0438 248.177 67.6305 251.037 67.6305C253.97 67.6305 256.28 67.0071 257.967 65.7605C259.653 64.5138 260.497 62.7905 260.497 60.5905C260.497 58.8305 259.653 57.5105 257.967 56.6305C256.28 55.7505 253.493 54.8705 249.607 53.9905L246.197 53.2205C242.53 52.4871 239.413 51.5705 236.847 50.4705C234.28 49.3705 232.19 47.8305 230.577 45.8505C229.037 43.7971 228.267 41.1938 228.267 38.0405C228.267 35.0338 229.11 32.3205 230.797 29.9005C232.557 27.4071 234.94 25.4638 237.947 24.0705C240.953 22.6771 244.253 21.9805 247.847 21.9805C252.613 21.9805 256.867 22.9705 260.607 24.9505C264.42 26.8571 267.647 29.5705 270.287 33.0905L260.937 37.6005C259.47 35.3271 257.6 33.6038 255.327 32.4305C253.053 31.2571 250.56 30.6705 247.847 30.6705C244.987 30.6705 242.713 31.2938 241.027 32.5405C239.413 33.7138 238.607 35.2905 238.607 37.2705C238.607 38.8105 239.083 39.9838 240.037 40.7905C240.99 41.5971 242.64 42.3305 244.987 42.9905C246.967 43.3571 249.13 43.7971 251.477 44.3105C252.137 44.4571 252.723 44.6038 253.237 44.7505C256.683 45.4838 259.69 46.4371 262.257 47.6105C264.823 48.7105 266.877 50.2871 268.417 52.3405C270.03 54.3205 270.837 56.8138 270.837 59.8205C270.837 62.9738 269.957 65.8338 268.197 68.4005C266.51 70.8938 264.127 72.8738 261.047 74.3405C257.967 75.7338 254.483 76.4305 250.597 76.4305Z" fill="white"/>
<path d="M196.965 23.0803H207.635V32.8703C208.442 29.5703 210.018 27.0403 212.365 25.2803C214.712 23.4469 218.195 22.5303 222.815 22.5303H224.355V33.0903H219.515C214.968 33.0903 211.852 34.2636 210.165 36.6103C208.478 38.9569 207.635 42.8803 207.635 48.3803V75.0003H196.965V23.0803Z" fill="white"/>
<path d="M178.756 74.9997C175.676 74.9997 173.256 74.5231 171.496 73.5697C169.809 72.5431 168.599 71.1131 167.866 69.2797C167.206 67.3731 166.876 64.9531 166.876 62.0197V32.2097H158.516V23.0797H166.876V12.8497L177.106 6.46973V23.0797H188.436V32.2097H177.106V60.8097C177.106 62.4964 177.472 63.7431 178.206 64.5497C178.939 65.2831 180.149 65.6497 181.836 65.6497H187.996V74.9997H178.756Z" fill="white"/>
<path d="M135.011 76.4305C130.098 76.4305 125.661 75.4771 121.701 73.5705C117.741 71.5905 114.551 68.9138 112.131 65.5405L121.371 60.7005C122.911 62.9738 124.928 64.6971 127.421 65.8705C129.914 67.0438 132.591 67.6305 135.451 67.6305C138.384 67.6305 140.694 67.0071 142.381 65.7605C144.068 64.5138 144.911 62.7905 144.911 60.5905C144.911 58.8305 144.068 57.5105 142.381 56.6305C140.694 55.7505 137.908 54.8705 134.021 53.9905L130.611 53.2205C126.944 52.4871 123.828 51.5705 121.261 50.4705C118.694 49.3705 116.604 47.8305 114.991 45.8505C113.451 43.7971 112.681 41.1938 112.681 38.0405C112.681 35.0338 113.524 32.3205 115.211 29.9005C116.971 27.4071 119.354 25.4638 122.361 24.0705C125.368 22.6771 128.668 21.9805 132.261 21.9805C137.028 21.9805 141.281 22.9705 145.021 24.9505C148.834 26.8571 152.061 29.5705 154.701 33.0905L145.351 37.6005C143.884 35.3271 142.014 33.6038 139.741 32.4305C137.468 31.2571 134.974 30.6705 132.261 30.6705C129.401 30.6705 127.128 31.2938 125.441 32.5405C123.828 33.7138 123.021 35.2905 123.021 37.2705C123.021 38.8105 123.498 39.9838 124.451 40.7905C125.404 41.5971 127.054 42.3305 129.401 42.9905C131.381 43.3571 133.544 43.7971 135.891 44.3105C136.551 44.4571 137.138 44.6038 137.651 44.7505C141.098 45.4838 144.104 46.4371 146.671 47.6105C149.238 48.7105 151.291 50.2871 152.831 52.3405C154.444 54.3205 155.251 56.8138 155.251 59.8205C155.251 62.9738 154.371 65.8338 152.611 68.4005C150.924 70.8938 148.541 72.8738 145.461 74.3405C142.381 75.7338 138.898 76.4305 135.011 76.4305Z" fill="white"/>
<path d="M79.2039 75.3118C74.7373 75.3118 70.6829 74.2123 67.0408 72.0133C63.3988 69.7456 60.5126 66.6876 58.3824 62.8394C56.3208 58.9912 55.29 54.662 55.29 49.8517C55.29 45.0414 56.3208 40.7122 58.3824 36.864C60.5126 33.0158 63.3644 29.9578 66.9378 27.6901C70.5798 25.4224 74.6685 24.2886 79.2039 24.2886C82.9147 24.2886 86.2132 25.0788 89.0993 26.6594C92.0542 28.1712 94.425 30.3014 96.2117 33.0501C97.9983 35.7301 98.9947 38.8568 99.2009 42.4302V57.1702C98.9947 60.6748 97.9983 63.8015 96.2117 66.5502C94.4937 69.2989 92.1573 71.4636 89.2024 73.0441C86.3163 74.5559 82.9834 75.3118 79.2039 75.3118ZM80.7501 66.5502C85.3542 66.5502 89.065 65.0041 91.8824 61.9117C94.6999 58.7507 96.1086 54.7307 96.1086 49.8517C96.1086 46.4845 95.4558 43.564 94.1501 41.0901C92.9132 38.5476 91.1265 36.5891 88.7901 35.2148C86.4537 33.7717 83.7393 33.0501 80.647 33.0501C77.5547 33.0501 74.806 33.7717 72.4008 35.2148C70.0644 36.6578 68.209 38.6507 66.8347 41.1932C65.529 43.6671 64.8762 46.5189 64.8762 49.7486C64.8762 53.0471 65.529 55.9676 66.8347 58.5102C68.209 60.984 70.0988 62.9425 72.5039 64.3856C74.9091 65.8287 77.6578 66.5502 80.7501 66.5502ZM95.4901 74.281V61.0871L97.2424 49.1302L95.4901 37.2763V25.3193H104.87V74.281H95.4901Z" fill="white"/>
</svg>
